<svg width="81" height="86" viewBox="0 0 81 86" fill="none" xmlns="http://www.w3.org/2000/svg">
<g id="_001-sketch_1_">
<g id="Group_56_1_">
<g id="Group_55_1_">
<path id="Path_357_1_" d="M11.9675 14.1595C9.14105 14.1595 6.83057 16.5861 6.83057 19.6078V34.1217H10.2627V19.6078C10.2627 18.6085 11.0253 17.7998 11.9675 17.7998H53.0182V14.1595H11.9675Z" fill="#E6A859"/>
</g>
</g>
<g id="Group_58_1_">
<g id="Group_57_1_">
<path id="Path_358_1_" d="M11.9673 67.8245C11.0251 67.8245 10.2625 67.0155 10.2625 66.0162V47.8622H6.85278V66.0162C6.85278 69.0141 9.14085 71.4646 11.9897 71.4646H29.1054V67.8483H11.9673V67.8245Z" fill="#E6A859"/>
</g>
</g>
<g id="Group_60_1_">
<g id="Group_59_1_">
<path id="Path_359_1_" d="M54.2519 72.1714L12.7078 28.107C12.0348 27.3932 10.9581 27.3932 10.2851 28.107L0.504721 38.4806C-0.16824 39.1944 -0.16824 40.3367 0.504721 41.0504L42.0489 85.1146C42.7219 85.8284 43.7986 85.8284 44.4716 85.1146L54.2519 74.741C54.9249 74.051 54.9249 72.909 54.2519 72.1714C54.2519 72.1952 54.2519 72.1952 54.2519 72.1714ZM43.2602 81.2602L4.13872 39.7655L11.4964 31.9614L50.618 73.4799L43.2602 81.2602Z" fill="#E6A859"/>
</g>
</g>
<g id="Group_62_1_">
<g id="Group_61_1_">
<path id="Path_360_1_" d="M73.9247 67.5033H48.2625V71.1199H67.083V80.1848C67.083 81.1841 67.8456 81.9931 68.7878 81.9931H73.9247C77.6933 82.0883 80.8338 78.9239 80.946 74.9267C81.0357 70.9295 78.0522 67.5984 74.2836 67.4795C74.149 67.5033 74.0369 67.5033 73.9247 67.5033ZM73.9247 78.4004H70.5151V71.1437H73.9247C75.809 71.1437 77.3568 72.7614 77.3568 74.7838C77.3568 76.8062 75.809 78.3766 73.9247 78.4004Z" fill="#E6A859"/>
</g>
</g>
<g id="Group_64_1_">
<g id="Group_63_1_">
<path id="Path_361_1_" d="M73.9158 13.067H65.3691V16.6836H73.9158C75.8 16.6836 77.3254 18.3013 77.3254 20.3237V74.7619H80.7351V20.3237C80.7575 16.3265 77.6843 13.067 73.9158 13.067Z" fill="#E6A859"/>
</g>
</g>
<g id="Group_66_1_">
<g id="Group_65_1_">
<path id="Rectangle_351_1_" d="M30.8613 50.4126L25.7168 55.8551L28.1303 58.4085L33.2748 52.9659L30.8613 50.4126Z" fill="#E6A859"/>
</g>
</g>
<g id="Group_68_1_">
<g id="Group_67_1_">
<path id="Rectangle_352_1_" d="M24.143 43.2817L18.9985 48.7243L21.412 51.2776L26.5565 45.835L24.143 43.2817Z" fill="#E6A859"/>
</g>
</g>
<g id="Group_70_1_">
<g id="Group_69_1_">
<path id="Rectangle_353_1_" d="M37.5751 57.5406L32.4307 62.9831L34.8441 65.5365L39.9886 60.0939L37.5751 57.5406Z" fill="#E6A859"/>
</g>
</g>
<g id="Group_72_1_">
<g id="Group_71_1_">
<path id="Rectangle_354_1_" d="M44.298 64.6759L39.1536 70.1185L41.5671 72.6719L46.7115 67.2293L44.298 64.6759Z" fill="#E6A859"/>
</g>
</g>
<g id="Group_74_1_">
<g id="Group_73_1_">
<path id="Rectangle_355_1_" d="M17.4201 36.1505L12.2756 41.5931L14.6891 44.1465L19.8336 38.7039L17.4201 36.1505Z" fill="#E6A859"/>
</g>
</g>
<g id="Group_76_1_">
<g id="Group_75_1_">
<path id="Path_362_1_" d="M72.4397 4.01488L70.0843 1.5168C68.0879 -0.505599 64.925 -0.505599 62.9285 1.5168L36.9073 29.1165C36.2343 29.8303 36.2343 30.9722 36.9073 31.686L43.9959 39.2047C44.6688 39.9184 45.7455 39.9184 46.4185 39.2047L72.4397 11.605C74.4137 9.51118 74.4137 6.10865 72.4397 4.01488ZM70.017 9.03514L45.2072 35.3502L40.5413 30.4014L65.3287 4.08632C65.9793 3.42012 66.9887 3.42012 67.6392 4.08632L69.9946 6.58469C70.6451 7.25089 70.6451 8.34515 70.017 9.03514Z" fill="#E6A859"/>
</g>
</g>
<g id="Group_78_1_">
<g id="Group_77_1_">
<path id="Path_363_1_" d="M45.3532 35.6253L37.9731 38.2428L40.4406 30.391L37.1879 29.249L33.6437 40.5268C33.3521 41.4785 33.8456 42.5015 34.7428 42.8108C34.9223 42.8584 35.1018 42.9061 35.2812 42.9061C35.4607 42.9061 35.6401 42.8822 35.8196 42.8108L46.4524 39.0516L45.3532 35.6253Z" fill="#E6A859"/>
</g>
</g>
<g id="Group_80_1_">
<g id="Group_79_1_">
<path id="Rectangle_356_1_" d="M60.8659 6.57273L58.4524 9.12604L65.5498 16.6347L67.9633 14.0814L60.8659 6.57273Z" fill="#E6A859"/>
</g>
</g>
<g id="Group_82_1_">
<g id="Group_81_1_">
<path id="Rectangle_357_1_" d="M60.7326 39.197H35.0703V42.8135H60.7326V39.197Z" fill="#E6A859"/>
</g>
</g>
<g id="Group_84_1_">
<g id="Group_83_1_">
<path id="Rectangle_358_1_" d="M67.3052 39.197H63.8955V42.8135H67.3052V39.197Z" fill="#E6A859"/>
</g>
</g>
<g id="Group_86_1_">
<g id="Group_85_1_">
<path id="Rectangle_359_1_" d="M73.9114 39.197H70.5017V42.8135H73.9114V39.197Z" fill="#E6A859"/>
</g>
</g>
</g>
</svg>
